<?xml version="1.0" encoding="UTF-8" standalone="no"?>
<svg
   xmlns:dc="http://purl.org/dc/elements/1.1/"
   xmlns:cc="http://creativecommons.org/ns#"
   xmlns:rdf="http://www.w3.org/1999/02/22-rdf-syntax-ns#"
   xmlns:svg="http://www.w3.org/2000/svg"
   xmlns="http://www.w3.org/2000/svg"
   height="512"
   version="1.1"
   width="512"
   id="svg18">
  <metadata
     id="metadata24">
    <rdf:RDF>
      <cc:Work
         rdf:about="">
        <dc:format>image/svg+xml</dc:format>
        <dc:type
           rdf:resource="http://purl.org/dc/dcmitype/StillImage" />
        <dc:title></dc:title>
      </cc:Work>
    </rdf:RDF>
  </metadata>
  <defs
     id="defs22" />
  <path
     style="fill:#0e232e;stroke-width:22.12973785"
     id="path4-3"
     d="M 50,65.247178 V 285.6236 C 50,378.18168 130.71556,461.92473 250.00001,506 369.28889,461.92473 450,378.18168 450,285.6236 V 65.247178 L 250.00001,6 Z" />
  <path
     style="fill:#ffffff;stroke-width:20.16437912"
     id="path4"
     d="M 69.68593,80.333707 V 283.28069 c 0,85.23771 72.77076,162.35757 180.31408,202.94696 C 357.54733,445.63826 430.31408,368.5184 430.31408,283.28069 V 80.333707 L 250.00001,25.772356 Z" />
  <path
     style="fill:#bdcdd4;stroke-width:20.16437912"
     id="path6"
     d="M 69.68593,80.333707 V 283.28069 c 0,85.23771 72.77076,162.35757 180.31408,202.94696 V 25.772356 Z" />
  <path
     style="fill:#ff6600;stroke-width:20.16437912"
     id="path8"
     d="m 109.75573,113.93711 v 162.3576 c 0,69.00195 56.60058,129.88603 140.24428,162.35757 83.6457,-32.47154 140.24427,-93.35562 140.24427,-162.35757 V 113.93711 L 250.00001,73.347721 Z" />
  <path
     style="fill:#ff9900;stroke-width:20.16437912"
     id="path10"
     d="M 250.00001,73.347721 V 438.65228 c 83.6457,-32.47154 140.24427,-93.35562 140.24427,-162.35757 v -162.3576 z" />
</svg>
