<svg xmlns="http://www.w3.org/2000/svg" width="640" height="400">
    <path fill="#19aeff" paint-order="stroke fill markers" d="M0 0h640v400H0z"/>
    <g transform="translate(-13.159 -10.972)">
        <rect ry="12.448" y="54.733" x="80.286" height="316.478" width="509.745" fill="#364e59" paint-order="stroke fill markers"/>
        <rect ry="11.366" y="50.733" x="76.286" height="316.478" width="509.745" fill="#fff" paint-order="stroke fill markers"/>
        <rect ry="9.201" y="50.733" x="76.286" height="42.461" width="509.745" fill="#9eabb0" paint-order="stroke fill markers"/>
        <path d="M156.044 71.571l9.773-5.642 9.773-5.642V82.856l-9.773-5.643z" fill="#364e59" paint-order="stroke fill markers"/>
        <rect ry="8.118" y="59.918" x="284.55" height="24.091" width="289.216" fill="#fff" paint-order="stroke fill markers"/>
        <path d="M212.105 71.571l-9.773 5.642-9.773 5.643V60.287l9.773 5.642z" fill="#364e59" paint-order="stroke fill markers"/>
        <path fill="#999" paint-order="stroke fill markers" d="M187.619 104.444h280.355v64.406H187.619z"/>
        <path fill="#ccc" paint-order="stroke fill markers" d="M187.619 204.545h162.234v-15.696H187.619zM187.619 230.545h143.864v-15.696H187.619zM187.619 256.545h153.203v-15.696H187.619z"/>
        <path fill="#ff4141" paint-order="stroke fill markers" d="M381.268 337.128h86.707V188.75h-86.707z"/>
        <path fill="#ccc" paint-order="stroke fill markers" d="M187.619 282.545h162.234v-15.696H187.619zM187.619 308.545h143.864v-15.696H187.619zM187.619 334.545h153.203v-15.696H187.619z"/>
        <path d="M402.258 211.292v25.384c0 10.662 9.297 20.308 23.037 25.385 13.74-5.077 23.038-14.723 23.038-25.385v-25.384l-23.038-6.825z" fill="#0e232e"/>
        <path d="M404.526 213.03v23.376c0 9.819 8.382 18.702 20.77 23.377 12.387-4.675 20.77-13.558 20.77-23.377V213.03l-20.77-6.285z" fill="#fff"/>
        <path d="M404.526 213.03v23.376c0 9.819 8.382 18.702 20.77 23.377v-53.038z" fill="#bdcdd4"/>
        <path d="M409.141 216.9v18.702c0 7.948 6.52 14.96 16.154 18.701 9.635-3.74 16.155-10.753 16.155-18.701V216.9l-16.155-4.675z" fill="#dc0000"/>
        <path d="M425.295 212.225v42.078c9.635-3.74 16.155-10.753 16.155-18.701V216.9z" fill="#ff4141"/>
        <path d="M413.4 223.578l7.81 7.809-7.81 7.81 3.998 3.997 7.81-7.809 7.809 7.81 3.998-3.999-7.81-7.81 7.81-7.808-3.998-3.999-7.81 7.81-7.809-7.81z" fill="#fff" paint-order="markers stroke fill"/>
    </g>
</svg>
