<?xml version="1.0" encoding="UTF-8" standalone="no"?>
<svg
   xmlns:dc="http://purl.org/dc/elements/1.1/"
   xmlns:cc="http://creativecommons.org/ns#"
   xmlns:rdf="http://www.w3.org/1999/02/22-rdf-syntax-ns#"
   xmlns:svg="http://www.w3.org/2000/svg"
   xmlns="http://www.w3.org/2000/svg"
   xmlns:sodipodi="http://sodipodi.sourceforge.net/DTD/sodipodi-0.dtd"
   xmlns:inkscape="http://www.inkscape.org/namespaces/inkscape"
   height="280"
   version="1.1"
   width="440"
   id="svg18"
   sodipodi:docname="hetzblocker_promotile.svg"
   inkscape:version="0.92.4 (33fec40, 2019-01-16)"
   inkscape:export-filename="/home/marklindhout/Desktop/hetzblocker-promotile_small.png"
   inkscape:export-xdpi="96"
   inkscape:export-ydpi="96">
  <sodipodi:namedview
     pagecolor="#ffffff"
     bordercolor="#666666"
     borderopacity="1"
     objecttolerance="10"
     gridtolerance="10"
     guidetolerance="10"
     inkscape:pageopacity="0"
     inkscape:pageshadow="2"
     inkscape:window-width="1920"
     inkscape:window-height="1135"
     id="namedview5501"
     showgrid="false"
     inkscape:zoom="1.84375"
     inkscape:cx="328.98558"
     inkscape:cy="145.12225"
     inkscape:window-x="0"
     inkscape:window-y="0"
     inkscape:window-maximized="1"
     inkscape:current-layer="svg18" />
  <metadata
     id="metadata24">
    <rdf:RDF>
      <cc:Work
         rdf:about="">
        <dc:format>image/svg+xml</dc:format>
        <dc:type
           rdf:resource="http://purl.org/dc/dcmitype/StillImage" />
        <dc:title></dc:title>
      </cc:Work>
    </rdf:RDF>
  </metadata>
  <defs
     id="defs22" />
  <g
     id="g6093">
    <rect
       y="1.0358289e-05"
       x="0"
       height="280"
       width="439.99997"
       id="rect6073"
       style="fill:#19aeff;stroke:none;stroke-width:14.17791176;stroke-miterlimit:4;stroke-dasharray:none;paint-order:stroke fill markers" />
    <path
       sodipodi:nodetypes="ccccc"
       inkscape:connector-curvature="0"
       id="rect6073-6"
       d="M 217.79895,129.91471 440,9.7751618e-6 V 280 H 0 Z"
       style="fill:#0084c8;stroke:none;stroke-width:14.17791176;stroke-miterlimit:4;stroke-dasharray:none;paint-order:stroke fill markers" />
  </g>
  <g
     id="g6071"
     transform="matrix(0.37058332,0,0,0.37058332,127.35417,-17.127318)">
    <path
       inkscape:connector-curvature="0"
       d="M 50,233.24718 V 453.6236 C 50,546.18168 130.71556,629.92473 250.00001,674 369.28889,629.92473 450,546.18168 450,453.6236 V 233.24718 L 250.00001,174 Z"
       id="path4-3"
       style="fill:#0e232e;stroke-width:22.12973785" />
    <path
       inkscape:connector-curvature="0"
       d="m 69.68593,248.33371 v 202.94698 c 0,85.23771 72.77076,162.35757 180.31408,202.94696 C 357.54733,613.63826 430.31408,536.5184 430.31408,451.28069 V 248.33371 L 250.00001,193.77236 Z"
       id="path4"
       style="fill:#ffffff;stroke-width:20.16437912" />
    <path
       inkscape:connector-curvature="0"
       d="m 69.68593,248.33371 v 202.94698 c 0,85.23771 72.77076,162.35757 180.31408,202.94696 V 193.77236 Z"
       id="path6"
       style="fill:#bdcdd4;stroke-width:20.16437912" />
    <path
       inkscape:connector-curvature="0"
       d="m 109.75573,281.93711 v 162.3576 c 0,69.00195 56.60058,129.88603 140.24428,162.35757 83.6457,-32.47154 140.24427,-93.35562 140.24427,-162.35757 V 281.93711 L 250.00001,241.34772 Z"
       id="path8"
       style="fill:#9eabb0;stroke-width:20.16437912" />
    <path
       inkscape:connector-curvature="0"
       d="m 250.00001,241.34772 v 365.30456 c 83.6457,-32.47154 140.24427,-93.35562 140.24427,-162.35757 v -162.3576 z"
       id="path10"
       style="fill:#bdcdd4;stroke-width:20.16437912" />
    <path
       inkscape:connector-curvature="0"
       id="rect151"
       d="m 214.29117,298.03544 -65.87151,19.1408 v 170.17645 l 65.87151,62.61187 v -118.0441 h 71.41948 v 118.0441 l 65.86968,-62.61187 V 317.17624 l -65.86968,-19.1408 v 67.17573 h -71.41948 z"
       style="fill:#005c94;stroke:none;stroke-width:35.71827698;stroke-miterlimit:4;stroke-dasharray:none;paint-order:stroke fill markers" />
  </g>
  <g
     id="g177"
     transform="translate(0,-231.91492)" />
</svg>
