<svg xmlns="http://www.w3.org/2000/svg" height="512" width="512">
    <path d="M50 65.247v220.377c0 92.558 80.716 176.3 200 220.376 119.289-44.075 200-127.818 200-220.376V65.247L250 6z" fill="#0e232e"/>
    <path d="M69.686 80.334V283.28c0 85.237 72.77 162.357 180.314 202.947 107.547-40.59 180.314-117.71 180.314-202.947V80.334L250 25.772z" fill="#fff"/>
    <path d="M69.686 80.334V283.28c0 85.237 72.77 162.357 180.314 202.947V25.772z" fill="#bdcdd4"/>
    <path d="M109.756 113.937v162.358c0 69.002 56.6 129.886 140.244 162.357 83.646-32.471 140.244-93.355 140.244-162.357V113.937L250 73.347z" fill="#9eabb0"/>
    <path d="M250 73.348v365.304c83.646-32.471 140.244-93.355 140.244-162.357V113.937z" fill="#bdcdd4"/>
    <path d="M214.291 130.035l-65.871 19.141v170.177l65.871 62.612V263.92h71.42v118.045l65.87-62.612V149.176l-65.87-19.14v67.175h-71.42z" fill="#005c94" paint-order="stroke fill markers"/>
</svg>
