<svg xmlns="http://www.w3.org/2000/svg" height="280" width="440">
    <g paint-order="stroke fill markers">
        <path fill="#19aeff" d="M0 0h440v280H0z"/>
        <path d="M217.799 129.915L440 0v280H0z" fill="#0084c8"/>
    </g>
    <path d="M160.61 51.356v65.44c0 27.486 23.969 52.353 59.39 65.441 35.423-13.088 59.39-37.955 59.39-65.44v-65.44L220 33.762z" fill="#0e232e"/>
    <path d="M166.456 55.836v60.265c0 25.311 21.61 48.212 53.544 60.265 31.936-12.053 53.544-34.954 53.544-60.265V55.836L220 39.634z" fill="#fff"/>
    <path d="M166.456 55.836v60.265c0 25.311 21.61 48.212 53.544 60.265V39.634z" fill="#bdcdd4"/>
    <path d="M178.355 65.815v48.211c0 20.49 16.807 38.57 41.645 48.212 24.838-9.642 41.645-27.721 41.645-48.212V65.815L220 53.762z" fill="#9eabb0"/>
    <path d="M220 53.762v108.476c24.838-9.642 41.645-27.721 41.645-48.212V65.815z" fill="#bdcdd4"/>
    <path d="M209.396 70.595l-19.56 5.684v50.533l19.56 18.593v-35.053h21.208v35.053l19.56-18.593V76.28l-19.56-5.684v19.948h-21.208z" fill="#005c94" paint-order="stroke fill markers"/>
    <text style="line-height:1.25" x="27.196" y="255.352" font-weight="400" font-size="15.877" font-family="sans-serif" letter-spacing="0" word-spacing="0" fill="#0e232e" stroke-width=".397">
        <tspan x="27.196" y="255.352" style="-inkscape-font-specification:'Alegreya Heavy'" font-weight="900" font-size="76.209" font-family="Alegreya">Hetz<tspan style="-inkscape-font-specification:'Alegreya Bold'" font-weight="700" fill="#fff">Blocker</tspan></tspan>
    </text>
</svg>
